# xmcd
#
# Track frame offsets: 
#        150
#        11948
#        30747
#        52230
#        77038
#        91831
#        111250
#        134420
#        152626
#        174049
#        194723
#
# Disc length: 3032 seconds
#
# Revision: 0
# Processed by: cddbd v1.5.2PL0 Copyright (c) Steve Scherf et al.
# Submitted via: ExactAudioCopy v1.3
#
DISCID=900bd60b
DTITLE=Anni Piper - Chasin' Tail
DYEAR=2010
DGENRE=Blues
TTITLE0=Amazon
TTITLE1=Chasin' Tail
TTITLE2=Whistleblower. The
TTITLE3=Chi Sau
TTITLE4=Dreamcatcher
TTITLE5=Highway Time
TTITLE6=If You Be My Baby
TTITLE7=Bleeding Heart Tattoo
TTITLE8=Hide Away
TTITLE9=Great Big Baby
TTITLE10=Voodoo Child
EXTD=
EXTT0=
EXTT1=
EXTT2=
EXTT3=
EXTT4=
EXTT5=
EXTT6=
EXTT7=
EXTT8=
EXTT9=
EXTT10=
PLAYORDER=
